<svg xmlns="http://www.w3.org/2000/svg" xmlns:xlink="http://www.w3.org/1999/xlink" width="30px" height="30px" viewBox="0 0 30 30" version="1.1">
    <g id="surface1">
        <path style=" stroke:none;fill-rule:evenodd;fill:rgb(139, 202, 224);fill-opacity:1;" d="M 6.839844 9.875 L 1.078125 6.644531 L 13.910156 0 L 14.183594 6.058594 Z M 28.894531 6.644531 L 23.195312 9.910156 L 15.851562 6.09375 L 16.0625 0 Z M 14.984375 22.367188 L 7.726562 18.609375 L 7.726562 11.050781 L 14.984375 7.292969 L 22.246094 11.050781 L 22.246094 18.609375 Z M 0 8.335938 L 5.972656 11.144531 L 5.972656 18.777344 L 0 21.664062 Z M 29.96875 8.335938 L 29.96875 21.664062 L 23.996094 18.777344 L 23.996094 11.144531 Z M 28.894531 23.335938 L 16.0625 30 L 15.851562 23.90625 L 23.195312 20.089844 Z M 13.910156 30 L 1.078125 23.335938 L 6.839844 20.125 L 14.183594 23.941406 Z M 13.910156 30 "/>
    </g>
</svg>
